<svg width="148" height="56" viewBox="0 0 148 56" fill="none" xmlns="http://www.w3.org/2000/svg">
<path d="M134.817 20.9902C137.904 20.9903 140.305 22.0192 141.971 23.832V21.5293H147.998V43.3828C147.998 52.6438 141.579 55.29 135.846 55.29C131.485 55.29 127.908 54.163 125.605 52.1543L128.643 47.499C129.819 48.381 132.122 49.8017 135.503 49.8018C139.472 49.8018 141.971 47.6459 141.971 43.6279V41.5703C140.256 43.481 137.855 44.6571 134.817 44.6572C128.79 44.6572 123.89 39.806 123.89 32.75C123.89 25.939 128.79 20.9902 134.817 20.9902ZM104.271 21.1494C110.834 19.6946 117.334 23.8354 118.789 30.3984C120.244 36.9615 116.103 43.4618 109.54 44.917C108.316 45.1884 107.093 45.2644 105.905 45.167L102.673 46.9639C101.732 47.4868 100.574 46.8063 100.574 45.7295V43.4258C97.8445 41.7623 95.7681 39.0351 95.0215 35.668C93.5665 29.1049 97.7075 22.6046 104.271 21.1494ZM53.5479 20.8428C60.2606 20.843 65.3563 26.0371 65.3564 32.7988C65.3564 33.5338 65.307 34.3667 65.209 34.7588H47.8145C48.4024 38.0418 50.9014 40.3935 54.5273 40.3936C56.8793 40.3936 58.8887 39.3653 60.2607 37.9443L63.3477 42.0107C61.5837 44.0687 58.2512 45.6855 54.2822 45.6855C46.9814 45.6854 41.6895 40.1 41.6895 33.2891C41.6895 26.4291 46.7859 20.8428 53.5479 20.8428ZM27.4395 20.8428C32.8785 20.8428 36.4561 24.518 36.4561 30.79V45H30.4775V31.6719C30.4775 28.4871 28.6648 26.4777 25.8721 26.4775C22.9811 26.4775 21.2169 28.487 21.2168 31.6719V45H15.2383V31.6719C15.2382 28.487 13.4257 26.4776 10.6328 26.4775C7.74186 26.4775 5.97759 28.487 5.97754 31.6719V45H0V21.5293H5.97754V24.0283C7.39848 22.0684 9.65246 20.8429 12.4453 20.8428C15.8753 20.8428 18.5214 22.4113 19.9424 25.1553C21.3144 22.8523 23.7156 20.8428 27.4395 20.8428ZM76.4629 45H70.4854V11.2881H76.4629V45ZM89.3281 45H83.3496V11.2881H89.3281V45ZM106.904 36.1504C105.398 36.1505 104.178 37.3711 104.178 38.877C104.178 40.3829 105.398 41.6044 106.904 41.6045C108.41 41.6043 109.632 40.3829 109.632 38.877C109.632 37.3712 108.41 36.1506 106.904 36.1504ZM135.944 26.4775C132.465 26.4775 129.868 29.271 129.868 32.75C129.868 36.278 132.465 39.0225 135.944 39.0225C139.423 39.0223 141.971 36.2289 141.971 32.75C141.971 29.2711 139.423 26.4777 135.944 26.4775ZM101.062 30.3066C99.5554 30.3066 98.3341 31.5271 98.334 33.0332C98.3341 34.5392 99.5554 35.7607 101.062 35.7607C102.567 35.7605 103.788 34.5391 103.788 33.0332C103.788 31.5273 102.567 30.3069 101.062 30.3066ZM112.749 30.3066C111.243 30.3068 110.023 31.5272 110.022 33.0332C110.023 34.5391 111.243 35.7605 112.749 35.7607C114.255 35.7605 115.476 34.5391 115.477 33.0332C115.476 31.5272 114.255 30.3068 112.749 30.3066ZM53.6455 25.9395C50.6565 25.9395 48.5981 27.9973 47.9121 30.9863H59.2314C58.5454 27.6544 56.4385 25.9395 53.6455 25.9395ZM106.904 24.4619C105.398 24.462 104.178 25.6834 104.178 27.1895C104.178 28.6954 105.398 29.9159 106.904 29.916C108.41 29.9158 109.632 28.6953 109.632 27.1895C109.632 25.6835 108.41 24.4621 106.904 24.4619Z" fill="white"/>
</svg>
